<svg width="27" height="11" viewBox="0 0 27 11" fill="none" xmlns="http://www.w3.org/2000/svg">
<path d="M10.6758 0.84375C10.3945 1.05469 10.1309 1.30664 9.88477 1.59961C10.123 1.74805 10.3242 1.91211 10.4883 2.0918C10.6523 2.26758 10.7832 2.44727 10.8809 2.63086C10.9824 2.81445 11.0547 2.99609 11.0977 3.17578C11.1406 3.35547 11.1621 3.52148 11.1621 3.67383C11.1621 4.05664 11.0898 4.39062 10.9453 4.67578C10.8008 4.95703 10.6094 5.19141 10.3711 5.37891C10.1367 5.56641 9.86523 5.70703 9.55664 5.80078C9.25195 5.89062 8.93555 5.93555 8.60742 5.93555C8.24023 5.93555 7.87891 5.89453 7.52344 5.8125C7.35938 6.16016 7.18164 6.50586 6.99023 6.84961C6.79883 7.19336 6.58984 7.52344 6.36328 7.83984C6.14062 8.15234 5.89648 8.44531 5.63086 8.71875C5.36914 8.98828 5.08594 9.2207 4.78125 9.41602C4.48047 9.61523 4.1543 9.77148 3.80273 9.88477C3.45117 9.99805 3.07617 10.0547 2.67773 10.0547C2.29102 10.0547 1.93359 9.99219 1.60547 9.86719C1.27734 9.74219 0.994141 9.56055 0.755859 9.32227C0.517578 9.08008 0.332031 8.78711 0.199219 8.44336C0.0664062 8.0957 0 7.69922 0 7.25391C0 6.67578 0.0976562 6.11914 0.292969 5.58398C0.492188 5.04883 0.763672 4.54883 1.10742 4.08398C1.45508 3.61914 1.86328 3.19727 2.33203 2.81836C2.80078 2.43945 3.30664 2.11523 3.84961 1.8457C4.39258 1.57617 4.96094 1.36719 5.55469 1.21875C6.14844 1.07031 6.74219 0.996094 7.33594 0.996094C7.80078 0.996094 8.21289 1.03516 8.57227 1.11328C8.93555 1.1875 9.25586 1.28711 9.5332 1.41211C9.68945 1.27539 9.85352 1.14844 10.0254 1.03125C10.1973 0.910156 10.3828 0.802734 10.582 0.708984L10.6758 0.84375ZM7.03125 5.32617C7.21094 4.95117 7.38867 4.5918 7.56445 4.24805C7.74023 3.90039 7.91797 3.57227 8.09766 3.26367C8.28125 2.95117 8.4707 2.66016 8.66602 2.39062C8.86133 2.11719 9.07227 1.86523 9.29883 1.63477C9.04102 1.5332 8.75977 1.45898 8.45508 1.41211C8.1543 1.36523 7.83203 1.3418 7.48828 1.3418C7.01562 1.3418 6.55273 1.39844 6.09961 1.51172C5.64648 1.625 5.20898 1.78125 4.78711 1.98047C4.36914 2.17578 3.96875 2.4082 3.58594 2.67773C3.20703 2.94727 2.85352 3.24023 2.52539 3.55664C2.20117 3.87305 1.90625 4.20508 1.64062 4.55273C1.37891 4.89648 1.1543 5.24414 0.966797 5.5957C0.783203 5.94727 0.640625 6.29492 0.539062 6.63867C0.441406 6.97852 0.392578 7.30273 0.392578 7.61133C0.392578 7.91211 0.447266 8.19336 0.556641 8.45508C0.666016 8.71289 0.816406 8.9375 1.00781 9.12891C1.20312 9.32031 1.43359 9.4707 1.69922 9.58008C1.96875 9.68945 2.26367 9.74414 2.58398 9.74414C3.08008 9.74414 3.52539 9.64648 3.91992 9.45117C4.31445 9.25586 4.67969 8.97852 5.01562 8.61914C5.35156 8.25586 5.66992 7.82031 5.9707 7.3125C6.27148 6.80469 6.57812 6.23828 6.89062 5.61328C6.48438 5.45312 6.10742 5.24805 5.75977 4.99805L5.85352 4.83398C6.04102 4.92773 6.23047 5.01758 6.42188 5.10352C6.61719 5.18555 6.82031 5.25977 7.03125 5.32617ZM10.5469 3.33984C10.5469 2.99219 10.4707 2.69531 10.3184 2.44922C10.1699 2.20312 9.96094 1.99805 9.69141 1.83398C9.33594 2.29492 8.99609 2.83203 8.67188 3.44531C8.35156 4.05469 8.01953 4.73438 7.67578 5.48438C7.78906 5.50391 7.90234 5.51953 8.01562 5.53125C8.12891 5.53906 8.24414 5.54297 8.36133 5.54297C8.6582 5.54297 8.9375 5.49023 9.19922 5.38477C9.46484 5.2793 9.69727 5.13086 9.89648 4.93945C10.0957 4.74414 10.2539 4.51172 10.3711 4.24219C10.4883 3.97266 10.5469 3.67188 10.5469 3.33984ZM26.2324 1.82812C26.2402 1.78125 26.2461 1.73633 26.25 1.69336C26.2578 1.64648 26.2617 1.60156 26.2617 1.55859C26.2617 1.39453 26.2285 1.23828 26.1621 1.08984C26.0996 0.9375 26.0059 0.804688 25.8809 0.691406C25.7598 0.574219 25.6113 0.482422 25.4355 0.416016C25.2598 0.345703 25.0625 0.310547 24.8438 0.310547C24.6133 0.310547 24.3691 0.361328 24.1113 0.462891C23.8535 0.560547 23.5957 0.734375 23.3379 0.984375C23.0879 1.22656 22.8301 1.53906 22.5645 1.92188C22.3027 2.30078 22.041 2.7207 21.7793 3.18164C21.5215 3.63867 21.2676 4.12109 21.0176 4.62891C20.7715 5.13672 20.5371 5.63672 20.3145 6.12891C20.0918 6.62109 19.8867 7.0918 19.6992 7.54102C19.5117 7.99023 19.3496 8.38672 19.2129 8.73047C19.0762 9.07031 18.9688 9.34375 18.8906 9.55078C18.8164 9.75781 18.7773 9.86523 18.7734 9.87305L18.4746 9.79688C18.4277 9.49609 18.3848 9.22461 18.3457 8.98242C18.3105 8.74023 18.2793 8.50781 18.252 8.28516C18.2285 8.0625 18.2109 7.8418 18.1992 7.62305C18.1875 7.4043 18.1816 7.16992 18.1816 6.91992C18.1816 6.7168 18.1895 6.48438 18.2051 6.22266C18.2246 5.96094 18.25 5.68359 18.2812 5.39062C18.3164 5.09766 18.3555 4.79688 18.3984 4.48828C18.4453 4.17969 18.4941 3.87695 18.5449 3.58008C18.5996 3.2832 18.6562 3.00195 18.7148 2.73633C18.7734 2.4668 18.834 2.22461 18.8965 2.00977C18.5645 2.50586 18.2598 3.00586 17.9824 3.50977C17.709 4.01367 17.4492 4.50781 17.2031 4.99219C16.957 5.47656 16.7188 5.94727 16.4883 6.4043C16.2578 6.85742 16.0215 7.2832 15.7793 7.68164C15.5371 8.08008 15.2812 8.44531 15.0117 8.77734C14.7422 9.10938 14.4453 9.39258 14.1211 9.62695C13.8008 9.86523 13.4453 10.0488 13.0547 10.1777C12.6641 10.3105 12.2266 10.377 11.7422 10.377C11.375 10.377 11.0273 10.3262 10.6992 10.2246C10.375 10.123 10.0898 9.98047 9.84375 9.79688C9.59766 9.61328 9.4043 9.39062 9.26367 9.12891C9.11914 8.86719 9.04688 8.57812 9.04688 8.26172C9.04688 7.90234 9.125 7.58203 9.28125 7.30078C9.43359 7.01562 9.63672 6.77734 9.89062 6.58594C10.1445 6.39062 10.4375 6.24219 10.7695 6.14062C11.1016 6.03906 11.4453 5.98828 11.8008 5.98828C12.0039 5.98828 12.209 6.00195 12.416 6.0293C12.627 6.05664 12.832 6.10156 13.0312 6.16406C13.2344 6.22656 13.4297 6.31055 13.6172 6.41602C13.8047 6.51758 13.9785 6.64453 14.1387 6.79688L13.9102 7.00195C13.9102 7.00195 13.8672 6.9668 13.7812 6.89648C13.6992 6.82227 13.5742 6.74219 13.4062 6.65625C13.2422 6.57031 13.0332 6.49219 12.7793 6.42188C12.5254 6.34766 12.2285 6.31055 11.8887 6.31055C11.6152 6.31055 11.3496 6.34961 11.0918 6.42773C10.834 6.50586 10.6035 6.62109 10.4004 6.77344C10.2012 6.92578 10.041 7.11328 9.91992 7.33594C9.79883 7.55859 9.73828 7.81641 9.73828 8.10938C9.73828 8.41016 9.80273 8.67969 9.93164 8.91797C10.0605 9.15234 10.2324 9.34961 10.4473 9.50977C10.6621 9.67383 10.9062 9.79688 11.1797 9.87891C11.4531 9.96484 11.7344 10.0078 12.0234 10.0078C12.4531 10.0078 12.8418 9.93555 13.1895 9.79102C13.541 9.65039 13.8652 9.45117 14.1621 9.19336C14.4629 8.93555 14.7422 8.62695 15 8.26758C15.2617 7.9082 15.5156 7.51172 15.7617 7.07812C16.0078 6.64453 16.2559 6.18164 16.5059 5.68945C16.7559 5.19336 17.0195 4.68164 17.2969 4.1543C17.5742 3.62695 17.873 3.08984 18.1934 2.54297C18.5137 1.99609 18.8672 1.45312 19.2539 0.914062L19.5234 1.05469C19.3945 1.43359 19.291 1.83398 19.2129 2.25586C19.1348 2.67383 19.0742 3.10547 19.0312 3.55078C18.9922 3.99219 18.9648 4.43945 18.9492 4.89258C18.9375 5.3457 18.9297 5.79297 18.9258 6.23438C18.9219 6.67578 18.918 7.10742 18.9141 7.5293C18.9141 7.94727 18.9043 8.34375 18.8848 8.71875C19.0176 8.37891 19.1777 7.98242 19.3652 7.5293C19.5527 7.07617 19.7598 6.59766 19.9863 6.09375C20.2129 5.58984 20.4531 5.07812 20.707 4.55859C20.9648 4.03516 21.2266 3.53516 21.4922 3.05859C21.7617 2.58203 22.0332 2.14648 22.3066 1.75195C22.584 1.35352 22.8555 1.02539 23.1211 0.767578C23.4141 0.486328 23.707 0.289062 24 0.175781C24.2969 0.0585938 24.5801 0 24.8496 0C25.1152 0 25.3535 0.0449219 25.5645 0.134766C25.7793 0.220703 25.9609 0.335938 26.1094 0.480469C26.2578 0.621094 26.3711 0.785156 26.4492 0.972656C26.5273 1.16016 26.5664 1.35352 26.5664 1.55273C26.5664 1.66211 26.5547 1.77539 26.5312 1.89258L26.2324 1.82812Z" fill="#C3AF9A"/>
</svg>
